<?xml version="1.0" standalone="no"?>
<!DOCTYPE svg PUBLIC "-//W3C//DTD SVG 20010904//EN"
 "http://www.w3.org/TR/2001/REC-SVG-20010904/DTD/svg10.dtd">
<svg version="1.0" xmlns="http://www.w3.org/2000/svg"
 width="1280.000000pt" height="1253.000000pt" viewBox="0 0 1280.000000 1253.000000"
 preserveAspectRatio="xMidYMid meet">
<metadata>
Created by potrace 1.15, written by Peter Selinger 2001-2017
</metadata>
<g transform="translate(0.000000,1253.000000) scale(0.100000,-0.100000)"
fill="#000000" stroke="none">
<path d="M12010 12523 c-766 -82 -2057 -1035 -3968 -2928 -1158 -1147 -2569
-2676 -3671 -3977 l-183 -216 -151 79 c-269 141 -759 385 -990 493 -1084 507
-1783 723 -2272 703 -170 -7 -264 -29 -395 -93 -78 -39 -109 -61 -175 -128
-139 -139 -199 -290 -199 -496 0 -182 7 -192 324 -487 400 -373 884 -874 1210
-1253 790 -918 1590 -2112 2530 -3770 166 -293 199 -341 257 -381 142 -98 318
-88 449 24 53 46 85 108 183 355 471 1180 1084 2483 1688 3587 1023 1869 2163
3506 3478 4990 505 570 961 1038 1785 1831 563 541 725 717 810 876 141 264
87 518 -143 673 -138 93 -362 140 -567 118z"/>
</g>
</svg>
